<svg xmlns="http://www.w3.org/2000/svg" version="1.1" xmlns:xlink="http://www.w3.org/1999/xlink" xmlns:svgjs="http://svgjs.com/svgjs" width="50" height="60" x="0" y="0" viewBox="0 0 512.003 512.003" style="enable-background:new 0 0 512 512" xml:space="preserve" class=""><g><g><path d="m502.002 492.001h-10.082v-4.057c0-17.889-13.08-32.773-30.176-35.611-14.016-70.502 22.348-107.656 38.994-105.563 5.285.682 10.15-2.9 11.102-8.129.939-5.16-2.267-10.155-7.319-11.469-8.057-2.416-30.715-12.924-35.011-18.47.402-68.285-30.815-115.114-71.643-164.042-2.431-2.906-8.14-9.708-18.574-8.961-.061.005-.109.008-.138.006-3.631-1.967-8.999-17.759-23.653-24.37-2.615-1.18-5.609-1.18-8.225 0-14.687 6.625-19.998 22.389-23.652 24.369-.038-.005-.083-.001-.154-.006-5.41-.396-9.494 1.179-12.69 3.393-6.882-8.638-12.07-14.435-13.322-15.929-2.431-2.91-8.134-9.711-18.564-8.962-.065.005-.112.005-.144.005-2.892-1.555-7.799-13.727-17.77-20.943v-23.057h60.286c5.522 0 10-4.478 10-10 0-33.196-27.008-60.204-60.204-60.204h-20.082c-5.523 0-10 4.477-10 10v83.262c-9.908 7.172-14.883 19.393-17.769 20.943-.03.004-.077 0-.142-.005-10.435-.762-16.132 6.05-18.563 8.959-1.722 2.063-4.704 5.31-10.807 12.816-2.979-.532-5.13-.26-5.32-.271-3.631-1.968-8.998-17.759-23.653-24.37-2.614-1.18-5.61-1.18-8.225 0-14.686 6.625-19.997 22.392-23.653 24.369-.028.003-.082 0-.154-.006-10.438-.738-16.13 6.058-18.561 8.964-42.663 51.158-72.034 97.225-71.641 164.041-4.295 5.544-26.953 16.052-35.01 18.469-5.053 1.312-8.26 6.309-7.32 11.469.952 5.229 5.828 8.8 11.102 8.129 16.593-2.081 52.968 35.165 38.993 105.563-17.095 2.84-30.174 17.723-30.174 35.611v4.057h-10.082c-5.523 0-10 4.477-10 10 0 5.522 4.477 10 10 10h492c5.522 0 10-4.477 10-10 0-5.522-4.478-10-10-10zm-27.528-156.139c-3.56 2.627-7.021 5.79-10.309 9.454-22 24.513-30.234 63.686-22.846 106.522h-29.729v-30.167c0-26.242-24.734-45.377-50.321-38.743 1.672-17.984 5.988-33.907 14.608-42.989 6.016-6.338 14.017-8.774 24.448-7.439 5.281.674 10.15-2.897 11.105-8.126.918-5.033-2.109-9.912-6.95-11.368-7.464-2.826-31.554-16.703-35.381-22.834.033-4.656-.101-9.278-.37-13.876l80.77 31.949c-.003.518.006 1.029 0 1.548-.106 9.022 7.602 17.074 24.975 26.069zm-110.15 115.976c-2.088-13.622-3.765-30.364-3.9-46.974 13.368-8.747 31.168.854 31.168 16.807v30.167zm-153.547 0v-80.367c0-22.169 18.036-40.204 40.204-40.204 22.169 0 40.204 18.035 40.204 40.204v80.367zm40.204-140.571c-33.197 0-60.204 27.008-60.204 60.204v80.367h-32.931c6.015-41.946 9.183-113.138-27.763-133.893 16.048-10.274 22.891-18.393 22.788-26.923-.081-6.726.192-13.387.819-20.001h194.582c.627 6.614.9 13.275.819 20.001-.104 8.529 6.739 16.648 22.788 26.923-36.956 20.761-33.771 91.976-27.762 133.893h-32.933v-80.367c.001-33.196-27.007-60.204-60.203-60.204zm-140.609 140.571v-30.167c0-15.926 17.787-25.578 31.168-16.802-.136 16.606-1.812 33.347-3.9 46.969zm-43.155-185.939 72.414-29.737c-1.563 5.92-2.852 11.865-3.87 17.846l-72.024 31.617c.781-6.646 1.943-13.209 3.48-19.726zm381.118 20.378-82.173-32.505c-1.046-6.109-2.383-12.183-3.999-18.229l82.737 30.824c1.532 6.577 2.673 13.202 3.435 19.91zm-103.086-35.255h-188.535c1.404-6.751 3.201-13.467 5.389-20.163h177.757c2.187 6.696 3.985 13.412 5.389 20.163zm6.14-118.631c8.016 7.57 11.528 23.969 29.439 23.252.422.322 39.323 42.033 56.589 86.594-57.332-21.349-82.68-30.825-83.351-31.011-7.418-18.539-17.643-36.949-30.792-55.525 16.251.292 20.572-16.186 28.115-23.31zm-90.408-112.39h10.082c18.719 0 34.489 12.856 38.945 30.204h-49.027zm-42.056 117.077c.91-1.04 2.028-2.481 2.615-2.934.021 0 .045.002.072.004 17.15 1.27 21.727-16.045 29.369-23.26 7.708 7.278 12.148 24.51 29.371 23.26.026-.002.05-.004.07-.004.586.452 1.72 1.914 2.614 2.933 21.96 25.09 38.198 49.418 49.089 73.781h-162.288c10.891-24.363 27.129-48.69 49.088-73.78zm-90.366 21.496c.915-1.045 2.034-2.487 2.616-2.931.021 0 .044.002.07.004 17.165 1.241 21.724-16.035 29.369-23.256 6.222 5.876 9.646 16.936 19.36 21.511-13.77 19.189-24.424 38.192-32.082 57.332-1.22.34 3.726-1.578-72.848 29.831 10.542-26.681 28.005-53.345 53.515-82.491zm-80.951 186.546c-3.213-3.58-6.598-6.678-10.081-9.258 17.374-8.994 25.083-17.048 24.977-26.072-.007-.597.002-1.189.001-1.783l70.689-31.031c-.242 4.374-.363 8.77-.332 13.196-3.828 6.132-27.918 20.009-35.382 22.834-4.84 1.456-7.867 6.335-6.949 11.368.954 5.229 5.835 8.798 11.104 8.126 10.435-1.334 18.433 1.102 24.449 7.439 8.62 9.083 12.937 25.004 14.609 42.985-25.598-6.643-50.322 12.529-50.322 38.746v30.167h-19.691c7.37-42.818-.947-82.062-23.072-106.717zm-7.525 142.825c0-8.881 7.225-16.107 16.106-16.107 5.35 0 398.7.001 399.625 0 8.881 0 16.106 7.226 16.106 16.107v4.057h-431.837z" fill="#d52020" data-original="#000000" class=""></path></g></g></svg>