<svg xmlns="http://www.w3.org/2000/svg" version="1.1" xmlns:xlink="http://www.w3.org/1999/xlink" xmlns:svgjs="http://svgjs.com/svgjs" width="50" height="60" x="0" y="0" viewBox="0 0 512 512" style="enable-background:new 0 0 512 512" xml:space="preserve" class=""><g>
<circle style="" cx="254" cy="254" r="254" fill="#39b39b" data-original="#39b39b" class=""></circle>
<circle style="" cx="298.8" cy="194.6" r="66" fill="#ffffff" data-original="#ffffff"></circle>
<g>
	<rect x="143.2" y="210.2" style="" width="24.8" height="169" fill="#edf0f2" data-original="#edf0f2"></rect>
	<rect x="339.2" y="290.6" style="" width="24.8" height="88.8" fill="#edf0f2" data-original="#edf0f2"></rect>
	<rect x="162.8" y="312.4" style="" width="182.6" height="22.4" fill="#edf0f2" data-original="#edf0f2"></rect>
</g>
<path style="" d="M202.8,311.4L176,300.6c-6.6-2.8-9.8-10.4-7.2-17l0,0c2.8-6.6,10.4-9.8,17-7.2l26.8,10.8
	c6.6,2.8,9.8,10.4,7.2,17l0,0C217.2,311,209.4,314.2,202.8,311.4z" fill="#f2cd56" data-original="#f2cd56"></path>
<g>
	<rect x="286.6" y="153.2" style="" width="24.4" height="82.8" fill="#e65336" data-original="#e65336"></rect>
	<rect x="257.4" y="182.4" style="" width="82.8" height="24.4" fill="#e65336" data-original="#e65336"></rect>
</g>
<g>
</g>
<g>
</g>
<g>
</g>
<g>
</g>
<g>
</g>
<g>
</g>
<g>
</g>
<g>
</g>
<g>
</g>
<g>
</g>
<g>
</g>
<g>
</g>
<g>
</g>
<g>
</g>
<g>
</g>
</g></svg>